<?xml version="1.0" standalone="no"?>
<!DOCTYPE svg PUBLIC "-//W3C//DTD SVG 1.1//EN"
  "http://www.w3.org/Graphics/SVG/1.1/DTD/svg11.dtd">
<svg version="1.1" xmlns="http://www.w3.org/2000/svg" width="1792" height="1063" viewBox="-992 -32 1792 1063"><defs><style type="text/css">@import url(&#x27;https://fonts.googleapis.com/css?family=Open+Sans:400,700&#x27;);</style></defs><g><filter id="dropshadow" height="130%"><feGaussianBlur in="SourceAlpha" stdDeviation="3"></feGaussianBlur><feOffset dx="3" dy="6" result="offsetblur"></feOffset><feComponentTransfer><feFuncA type="linear" slope="0.4"></feFuncA></feComponentTransfer><feMerge><feMergeNode></feMergeNode><feMergeNode in="SourceGraphic"></feMergeNode></feMerge></filter><g><g style="pointer-events:none;"><line x1="32" y1="19" x2="-928" y2="574" stroke="#eee" stroke-width="1"></line><line x1="96" y1="56" x2="-864" y2="611" stroke="#eee" stroke-width="1"></line><line x1="160" y1="93" x2="-800" y2="648" stroke="#eee" stroke-width="1"></line><line x1="224" y1="130" x2="-736" y2="685" stroke="#eee" stroke-width="1"></line><line x1="288" y1="167" x2="-672" y2="722" stroke="#eee" stroke-width="1"></line><line x1="352" y1="204" x2="-608" y2="759" stroke="#eee" stroke-width="1"></line><line x1="416" y1="241" x2="-544" y2="796" stroke="#eee" stroke-width="1"></line><line x1="480" y1="278" x2="-480" y2="833" stroke="#eee" stroke-width="1"></line><line x1="544" y1="315" x2="-416" y2="870" stroke="#eee" stroke-width="1"></line><line x1="608" y1="352" x2="-352" y2="907" stroke="#eee" stroke-width="1"></line><line x1="672" y1="389" x2="-288" y2="944" stroke="#eee" stroke-width="1"></line><line x1="736" y1="426" x2="-224" y2="981" stroke="#eee" stroke-width="1"></line><line x1="-32" y1="19" x2="736" y2="463" stroke="#eee" stroke-width="1"></line><line x1="-96" y1="56" x2="672" y2="500" stroke="#eee" stroke-width="1"></line><line x1="-160" y1="93" x2="608" y2="537" stroke="#eee" stroke-width="1"></line><line x1="-224" y1="130" x2="544" y2="574" stroke="#eee" stroke-width="1"></line><line x1="-288" y1="167" x2="480" y2="611" stroke="#eee" stroke-width="1"></line><line x1="-352" y1="204" x2="416" y2="648" stroke="#eee" stroke-width="1"></line><line x1="-416" y1="241" x2="352" y2="685" stroke="#eee" stroke-width="1"></line><line x1="-480" y1="278" x2="288" y2="722" stroke="#eee" stroke-width="1"></line><line x1="-544" y1="315" x2="224" y2="759" stroke="#eee" stroke-width="1"></line><line x1="-608" y1="352" x2="160" y2="796" stroke="#eee" stroke-width="1"></line><line x1="-672" y1="389" x2="96" y2="833" stroke="#eee" stroke-width="1"></line><line x1="-736" y1="426" x2="32" y2="870" stroke="#eee" stroke-width="1"></line><line x1="-800" y1="463" x2="-32" y2="907" stroke="#eee" stroke-width="1"></line><line x1="-864" y1="500" x2="-96" y2="944" stroke="#eee" stroke-width="1"></line><line x1="-928" y1="537" x2="-160" y2="981" stroke="#eee" stroke-width="1"></line><polygon points="-960 555, -960 565, -192 1009, -192 999" stroke-linejoin="round" stroke="#54626f" stroke-width="1" fill="#f9f9f9"></polygon><polygon points="-192 1009, 768 454, 768 444, -192 999" stroke-linejoin="round" stroke="#54626f" stroke-width="1" fill="#e2e2e2"></polygon></g><g><g><g transform="translate(0 0)"><svg x="32" y="111" overflow="visible" style="user-select:none;"><polygon points="0 0, 516 298, 166 501, -350 202" fill="#e8e8e8" stroke="#e8e8e8" stroke-width="40"></polygon></svg></g></g><g><g transform="translate(0 0)"><svg x="-352" y="333" overflow="visible" style="user-select:none;"><polygon points="0 0, 128 74, -173 248, -301 174" fill="#e8e8e8" stroke="#e8e8e8" stroke-width="40"></polygon></svg></g></g><g><g transform="translate(0 0)"><svg x="32" y="555" overflow="visible" style="user-select:none;"><polygon points="0 0, 128 74, -174 249, -302 175" fill="#e8e8e8" stroke="#e8e8e8" stroke-width="40"></polygon></svg></g></g><g><g transform="translate(0 0)"><svg x="-384" y="537" overflow="visible" style="user-select:none;"><polygon points="0 0, 185 107, 77 170, -108 63" fill="#e8e8e8" stroke="#e8e8e8" stroke-width="40"></polygon></svg></g></g></g><g style="pointer-events:none;"><line x1="0" y1="0" x2="-960" y2="555" stroke="#54626f" stroke-width="1"></line><line x1="64" y1="37" x2="-896" y2="592" stroke="#54626f" stroke-width="1"></line><line x1="128" y1="74" x2="-832" y2="629" stroke="#54626f" stroke-width="1"></line><line x1="192" y1="111" x2="-768" y2="666" stroke="#54626f" stroke-width="1"></line><line x1="256" y1="148" x2="-704" y2="703" stroke="#54626f" stroke-width="1"></line><line x1="320" y1="185" x2="-640" y2="740" stroke="#54626f" stroke-width="1"></line><line x1="384" y1="222" x2="-576" y2="777" stroke="#54626f" stroke-width="1"></line><line x1="448" y1="259" x2="-512" y2="814" stroke="#54626f" stroke-width="1"></line><line x1="512" y1="296" x2="-448" y2="851" stroke="#54626f" stroke-width="1"></line><line x1="576" y1="333" x2="-384" y2="888" stroke="#54626f" stroke-width="1"></line><line x1="640" y1="370" x2="-320" y2="925" stroke="#54626f" stroke-width="1"></line><line x1="704" y1="407" x2="-256" y2="962" stroke="#54626f" stroke-width="1"></line><line x1="768" y1="444" x2="-192" y2="999" stroke="#54626f" stroke-width="1"></line><line x1="0" y1="0" x2="768" y2="444" stroke="#54626f" stroke-width="1"></line><line x1="-64" y1="37" x2="704" y2="481" stroke="#54626f" stroke-width="1"></line><line x1="-128" y1="74" x2="640" y2="518" stroke="#54626f" stroke-width="1"></line><line x1="-192" y1="111" x2="576" y2="555" stroke="#54626f" stroke-width="1"></line><line x1="-256" y1="148" x2="512" y2="592" stroke="#54626f" stroke-width="1"></line><line x1="-320" y1="185" x2="448" y2="629" stroke="#54626f" stroke-width="1"></line><line x1="-384" y1="222" x2="384" y2="666" stroke="#54626f" stroke-width="1"></line><line x1="-448" y1="259" x2="320" y2="703" stroke="#54626f" stroke-width="1"></line><line x1="-512" y1="296" x2="256" y2="740" stroke="#54626f" stroke-width="1"></line><line x1="-576" y1="333" x2="192" y2="777" stroke="#54626f" stroke-width="1"></line><line x1="-640" y1="370" x2="128" y2="814" stroke="#54626f" stroke-width="1"></line><line x1="-704" y1="407" x2="64" y2="851" stroke="#54626f" stroke-width="1"></line><line x1="-768" y1="444" x2="0" y2="888" stroke="#54626f" stroke-width="1"></line><line x1="-832" y1="481" x2="-64" y2="925" stroke="#54626f" stroke-width="1"></line><line x1="-896" y1="518" x2="-128" y2="962" stroke="#54626f" stroke-width="1"></line><line x1="-960" y1="555" x2="-192" y2="999" stroke="#54626f" stroke-width="1"></line></g><g><g><g transform="translate(0 0)"><svg x="-251" y="447" overflow="visible" style="user-select:none;"><polygon points="0 0, 200 115, 136 152, -64 37" fill="#f5b720"></polygon><polygon points="0 0, 200 115, 136 152, -64 37" fill="none" stroke-width="20" stroke="#f5b720" opacity="1"></polygon><polygon points="0 0, -19 -11, 13 -30, -83 -11, -115 44, -83 26, -64 37" fill="#f5b720"></polygon><polygon points="200 115, 219 126, 251 108, 219 163, 123 182, 155 163, 136 152" fill="#f5b720"></polygon></svg></g></g><g><g transform="translate(0 0)"><svg x="112" y="416" overflow="visible" style="user-select:none;"><polygon points="0 0, 75 43, 11 80, -64 37" fill="#f5b720"></polygon><polygon points="0 0, 75 43, 11 80, -64 37" fill="none" stroke-width="20" stroke="#f5b720" opacity="1"></polygon><polygon points="0 0, -19 -11, 13 -30, -83 -11, -115 44, -83 26, -64 37" fill="#f5b720"></polygon><polygon points="75 43, 94 54, 126 36, 94 91, -2 110, 30 91, 11 80" fill="#f5b720"></polygon></svg></g></g></g><g><g><g><line x1="-540" y1="737" x2="-409" y2="644" stroke="#000000" stroke-width="2" stroke-linecap="round"></line><polygon points="-400 638, -424 645, -411 646, -407 653, -400 638" stroke-linejoin="round" fill="#000000" stroke="#000000" stroke-width="1"></polygon></g></g><g><g><line x1="-96" y1="259" x2="82" y2="259" stroke="#000000" stroke-width="2" stroke-linecap="round"></line><polygon points="96 259, 71 252, 78 259, 71 266, 96 259" stroke-linejoin="round" fill="#000000" stroke="#000000" stroke-width="1"></polygon></g></g><g><g><line x1="-349" y1="631" x2="-224" y2="703" stroke="#000000" stroke-width="2" stroke-linecap="round"></line></g></g><g><g><g><line x1="53" y1="419" x2="-118" y2="320" stroke="#000000" stroke-width="2" stroke-dasharray="8,6" stroke-linecap="butt"></line><polygon points="-128 315, -119 329, -116 322, -102 320, -128 315" stroke-linejoin="round" fill="#000000" stroke="#000000" stroke-width="1"></polygon></g></g></g><g><g><g><line x1="181" y1="419" x2="251" y2="322" stroke="#000000" stroke-width="2" stroke-dasharray="8,6" stroke-linecap="butt"></line><polygon points="256 315, 236 325, 249 324, 257 330, 256 315" stroke-linejoin="round" fill="#000000" stroke="#000000" stroke-width="1"></polygon></g></g></g><g><g><g><line x1="-119" y1="486" x2="-189" y2="322" stroke="#000000" stroke-width="2" stroke-linecap="round"></line><polygon points="-192 315, -197 330, -188 324, -175 327, -192 315" stroke-linejoin="round" fill="#000000" stroke="#000000" stroke-width="1"></polygon></g></g></g><g><g><line x1="-128" y1="315" x2="44" y2="414" stroke="#000000" stroke-width="2" stroke-dasharray="8,6" stroke-linecap="butt"></line><polygon points="53 419, 44 405, 41 412, 28 414, 53 419" stroke-linejoin="round" fill="#000000" stroke="#000000" stroke-width="1"></polygon></g></g><g><g><line x1="-540" y1="737" x2="-222" y2="749" stroke="#000000" stroke-width="2" stroke-linecap="round"></line><polygon points="-208 749, -232 742, -226 749, -233 755, -208 749" stroke-linejoin="round" fill="#000000" stroke="#000000" stroke-width="1"></polygon></g></g><g><g><line x1="-224" y1="703" x2="-154" y2="549" stroke="#000000" stroke-width="2" stroke-linecap="round"></line><polygon points="-151 542, -168 554, -155 552, -146 557, -151 542" stroke-linejoin="round" fill="#000000" stroke="#000000" stroke-width="1"></polygon></g></g><g><g><line x1="181" y1="419" x2="100" y2="267" stroke="#000000" stroke-width="2" stroke-dasharray="8,6" stroke-linecap="butt"></line><polygon points="96 259, 92 275, 101 269, 114 271, 96 259" stroke-linejoin="round" fill="#000000" stroke="#000000" stroke-width="1"></polygon></g></g><g><g><line x1="-479" y1="480" x2="-202" y2="320" stroke="#000000" stroke-width="2" stroke-linecap="round"></line><polygon points="-192 315, -218 320, -204 322, -201 329, -192 315" stroke-linejoin="round" fill="#000000" stroke="#000000" stroke-width="1"></polygon></g></g><g><g><g><line x1="-119" y1="486" x2="72" y2="476" stroke="#000000" stroke-width="2" stroke-dasharray="8,6" stroke-linecap="butt"></line><polygon points="85 475, 60 470, 68 476, 62 483, 85 475" stroke-linejoin="round" fill="#000000" stroke="#000000" stroke-width="1"></polygon></g></g></g><g><g><line x1="-425" y1="587" x2="-496" y2="527" stroke="#000000" stroke-width="2" stroke-linecap="round"></line></g></g><g><g><line x1="-96" y1="259" x2="243" y2="312" stroke="#000000" stroke-width="2" stroke-linecap="round"></line><polygon points="256 315, 235 304, 239 312, 229 317, 256 315" stroke-linejoin="round" fill="#000000" stroke="#000000" stroke-width="1"></polygon></g></g><g><g><line x1="-540" y1="737" x2="-559" y2="535" stroke="#000000" stroke-width="2" stroke-linecap="round"></line><polygon points="-560 527, -570 542, -559 537, -547 541, -560 527" stroke-linejoin="round" fill="#000000" stroke="#000000" stroke-width="1"></polygon></g></g></g><g><g><g transform="translate(0 0)"><svg x="64" y="140" height="137.556" width="128" viewBox="0 0 33.866665 36.394987"><g style="line-height:0%;" fill="#4286c5" font-family="sans-serif" font-size="3.175" stroke-width=".265"><path d="M.187 12.17v14.365l16.586 9.577V21.747l-4.146-7.183-8.293-4.787z" fill="#d2d2d4"></path><path d="M20.955 14.564l8.292-4.787 4.147 2.394v14.364l-16.587 9.576V21.748z" fill="#b8b8bb"></path><path d="M4.334 9.777l8.292 4.788h8.293l8.293-4.788V4.988L20.919.2h-8.293L4.334 4.988zM12.856 14.565h8.294l-4.147 7.182z" fill="#ececed"></path><path d="M4.394 4.806v4.789L.247 11.988zM29.212 9.595v-4.79l4.146 7.183z" fill="#d2d2d4"></path><path d="M208.47 90.288l4.345-4.346 4.346 8.693z" fill="none" stroke="#83838a" stroke-width=".264" transform="scale(1.34943 .77909) rotate(45 195.366 -185.783)"></path><path d="M199.734 94.678l13.037 13.037h17.383L217.117 94.68l-8.692-4.347h-8.69zM212.819 85.928v-8.69h4.345l13.037 13.037.001 17.382-13.037-13.037zM199.734 90.333h8.69l4.347-4.346v-8.69l-4.347-4.347h-8.69l-4.346 4.346v8.69z" fill="none" stroke="#83838a" stroke-width=".257" transform="scale(1.34943 .77909) rotate(45 195.366 -185.783)"></path><path d="M212.855 107.631l-13.037-13.037-4.346-8.692v-8.69l4.346-4.347h8.69l8.692 4.346 13.038 13.038v17.383z" fill="none" stroke="#000000" stroke-width=".514" transform="scale(1.34943 .77909) rotate(45 195.366 -185.783)"></path><path style="line-height:1.25;-inkscape-font-specification:&#x27;Open Sans&#x27;;" d="M10.6 9.65l5.492-5.978-.062-.036q-2.286 1.471-3.094 1.938L8.238 8.286 6.325 7.18l10.099-5.83 2.915 1.682-5.333 5.84.042.023 10.258-2.995 2.915 1.683-10.1 5.83-1.996-1.152 4.78-2.76q.339-.195.788-.447.456-.247 2.445-1.3l-.062-.036-10.514 3.063z" font-family="Open Sans" font-size="14.883"></path></g></svg></g></g><g><g transform="translate(0 0)"><svg x="-224" y="222" height="111" width="128" fill-rule="evenodd"><path d="M64 74v37l64-37V37L64 74z" fill="#b8b8bb"></path><path d="M0 37v37l64 37V74L0 37z" fill="#d2d2d4"></path><path d="M0 37L64 0l64 37-64 37L0 37z" fill="#ececed"></path><path d="M64 73.407l62.111-35.86.514.889-62.487 36.078h-.276L.743 38.072l.514-.89L64 73.407z" fill="#83838a"></path><path d="M63.486 74h1.027v36h-1.027z" fill="#83838a"></path><path d="M128 37v37l-64 37L0 74V37L64 0l64 37zM2.054 38.185v34.63L64 108.627l61.946-35.812v-34.63L64 2.373 2.054 38.185z" fill="#000000"></path></svg></g></g><g><g transform="translate(0 0)"><svg x="232" y="258" height="70.288" width="112.002" viewBox="0 0 29.633866 18.596915"><defs></defs><path d="M29.37 9.367L27.29 7.53l-16.63 4.778-8.316-4.8" fill="none" stroke="#841b1b" stroke-width=".267"></path><path d="M14.817 14.732l-2.079 3.6h4.158zM.265 11.108l2.079-3.6-2.08 1.824z" fill="#ce3222" fill-rule="evenodd" stroke="#841b1b" stroke-width=".267"></path><path d="M29.37 11.13l-2.08-3.6 2.08 1.837z" fill="#a2281b" fill-rule="evenodd" stroke="#841b1b" stroke-width=".267"></path><path d="M2.344 7.507l12.473 7.225L27.29 7.53 14.817.306z" fill="#e05243" fill-rule="evenodd" stroke="#841b1b" stroke-width=".267"></path><path d="M.265 11.108l2.079-3.6 12.473 7.224-2.079 3.6z" fill="#ce3222" fill-rule="evenodd" stroke="#841b1b" stroke-width=".265"></path><path d="M16.896 18.332l-2.08-3.6L27.29 7.53l2.08 3.6z" fill="#a2281b" fill-rule="evenodd" stroke="#841b1b" stroke-width=".265"></path><path d="M.265 9.332v1.776l12.473 7.224h4.158l12.473-7.201V9.367L27.29 7.53 14.817.306 2.344 7.507z" fill="none" stroke="#000000" stroke-width=".529"></path><g transform="scale(.23075 .13322) rotate(45 1682.355 -3171.487)"><circle cx="2820.64" cy="255.199" fill="none" r="25.979" stroke="#fff" stroke-width="3.448"></circle><path d="M2817.601 243.03h-9.126a3.038 3.038 0 0 0-3.027 3.043l-.018 18.253a3.051 3.051 0 0 0 3.042 3.042h24.337a3.051 3.051 0 0 0 3.042-3.042v-15.211a3.051 3.051 0 0 0-3.042-3.042h-12.169z" fill="#fff"></path><g fill="#e05243" fill-rule="evenodd"><path d="M2803.23 240.954l-11.691-6.75" stroke="#e05243" stroke-width="9.375"></path><path d="M2757.335 182.443l-11.691-6.75" marker-end="url(#a)" stroke="#fff" stroke-linecap="round" stroke-width="2.812" transform="translate(45.895 58.512)"></path></g><path d="M2803.23 269.444l-11.691 6.75" fill="#e05243" fill-rule="evenodd" stroke="#e05243" stroke-width="9.375"></path><path d="M2757.335 210.932l-11.692 6.75" fill="none" marker-end="url(#b)" stroke="#fff" stroke-linecap="round" stroke-width="2.812" transform="translate(45.895 58.512)"></path><g fill="none"><path d="M2838.05 240.954l11.692-6.75" stroke="#e05243" stroke-width="9.375"></path><path d="M2792.156 182.443l11.691-6.75" marker-end="url(#c)" stroke="#fff" stroke-linecap="round" stroke-width="2.812" transform="translate(45.895 58.512)"></path><g><path d="M2838.05 269.444l11.692 6.75" stroke="#e05243" stroke-width="9.375"></path><path d="M2792.156 210.932l11.691 6.75" marker-end="url(#d)" stroke="#fff" stroke-linecap="round" stroke-width="2.812" transform="translate(45.895 58.512)"></path></g></g></g></svg></g></g><g><g transform="translate(0 0)"><svg x="53" y="382" height="111" width="128" fill-rule="evenodd"><path d="M64 74v37l64-37V37L64 74z" fill="#b8b8bb"></path><path d="M0 37v37l64 37V74L0 37z" fill="#d2d2d4"></path><path d="M0 37L64 0l64 37-64 37L0 37z" fill="#ececed"></path><path d="M64 73.407l62.111-35.86.514.889-62.487 36.078h-.276L.743 38.072l.514-.89L64 73.407z" fill="#83838a"></path><path d="M63.486 74h1.027v36h-1.027z" fill="#83838a"></path><path d="M128 37v37l-64 37L0 74V37L64 0l64 37zM2.054 38.185v34.63L64 108.627l61.946-35.812v-34.63L64 2.373 2.054 38.185z" fill="#000000"></path></svg></g></g><g><g transform="translate(0 0)"><svg x="-576" y="444" height="94" width="97" fill-rule="evenodd"><path d="M0 18.6v18.6l32.333 18.6h32.334L97 37.2V18.6L64.667 0H32.333L0 18.6z" fill="#ececed"></path><path d="M64.667 55.8L97 37.2v37.2L64.667 93V55.8z" fill="#b8b8bb"></path><path d="M32.333 55.8h32.334V93H32.333V55.8zM0 37.2v37.2L32.333 93V55.8L0 37.2z" fill="#d2d2d4"></path><g fill="none" stroke="#83838a" stroke-width="1.04"><path d="M.955 37.877L32.333 55.8h32.334l31.378-17.923M32.333 55.8v36.211M64.667 55.8v36.574"></path></g><path d="M97 18.6v55.8L64.667 93H32.333L0 74.4V18.6L32.333 0h32.334L97 18.6zM32.865 1.989L1.989 19.751v53.498l30.876 17.762h31.27l30.876-17.762V19.751L64.135 1.989h-31.27z" fill="#000000"></path><path d="M69.912 15.583c11.818 6.798 11.818 17.836 0 24.635-11.817 6.798-31.007 6.798-42.824 0-11.818-6.799-11.818-17.837 0-24.635 11.817-6.799 31.007-6.799 42.824 0z" fill="#4286c5"></path><path d="M49.584 14.774c1.824 1.049 1.824 2.753 0 3.802-1.824 1.05-4.786 1.05-6.61 0-1.824-1.049-1.824-2.753 0-3.802 1.824-1.05 4.786-1.05 6.61 0zM60.451 21.025c1.825 1.049 1.825 2.753 0 3.803-1.824 1.049-4.786 1.049-6.61 0-1.824-1.05-1.824-2.754 0-3.803s4.786-1.049 6.61 0zM71.319 27.276c1.824 1.05 1.824 2.754 0 3.803-1.825 1.049-4.787 1.049-6.611 0-1.824-1.049-1.824-2.753 0-3.803 1.824-1.049 4.786-1.049 6.611 0zM38.497 33.654c1.824 1.05 1.824 2.754 0 3.803-1.825 1.05-4.787 1.05-6.611 0-1.824-1.049-1.824-2.753 0-3.803 1.824-1.049 4.786-1.049 6.611 0z" fill="#fff"></path><path d="M47.458 15.878c.453.26.393.717-.133 1.02-.526.303-1.32.337-1.773.076-.452-.26-.392-.717.133-1.019.526-.303 1.321-.337 1.773-.077z" fill="#fff"></path><path d="M48.111 15.621c1.012.582 1.012 1.526 0 2.108-1.011.582-2.653.582-3.664 0-1.012-.582-1.012-1.526 0-2.108 1.011-.582 2.653-.582 3.664 0zM58.978 21.872c1.012.582 1.012 1.527 0 2.108-1.011.582-2.653.582-3.664 0-1.012-.581-1.012-1.526 0-2.108 1.011-.581 2.653-.581 3.664 0zM69.846 28.124c1.011.581 1.011 1.526 0 2.108-1.012.582-2.654.582-3.665 0-1.011-.582-1.011-1.527 0-2.108 1.011-.582 2.653-.582 3.665 0z" fill="#4286c5"></path><path d="M37.024 34.502c1.011.582 1.011 1.526 0 2.108-1.012.582-2.654.582-3.665 0-1.011-.582-1.011-1.526 0-2.108 1.011-.582 2.653-.582 3.665 0z" fill="#fff"></path><g fill="#fff"><path d="M52.301 25.172L37.719 33.56l.482.834 14.584-8.388-.484-.834z"></path><path d="M46.993 26.089l6.654-1.146-4.324 5.168c.189-1.691-.757-3.313-2.33-4.022z" stroke="#fff" stroke-width=".36"></path></g><g fill="#fff"><path d="M43.488 19.937l-6.057 13.797.886.387 6.056-13.798-.885-.386z"></path><path d="M39.76 23.812l4.676-4.854-.405 6.716c-.855-1.474-2.582-2.221-4.271-1.862z" stroke="#fff" stroke-width=".36"></path></g><g fill="#fff"><path d="M61.953 30.061l-23.985 3.483.14.955 23.985-3.486-.14-.952z"></path><path d="M56.68 28.957l6.608 1.387-5.936 3.209c.804-1.503.526-3.358-.672-4.596z" stroke="#fff" stroke-width=".36"></path></g><path d="M37.96 33.977l13.12-7.547M37.873 33.927l5.792-13.134M38.037 34.022l22.478-3.281" fill="#fff" stroke="#fff" stroke-width="1.93"></path></svg></g></g><g><g transform="translate(0 0)"><svg x="-247" y="449" height="111" width="128" fill-rule="evenodd"><path d="M64 74v37l64-37V37L64 74z" fill="#b8b8bb"></path><path d="M0 37v37l64 37V74L0 37z" fill="#d2d2d4"></path><path d="M0 37L64 0l64 37-64 37L0 37z" fill="#ececed"></path><path d="M64 73.407l62.111-35.86.514.889-62.487 36.078h-.276L.743 38.072l.514-.89L64 73.407z" fill="#83838a"></path><path d="M63.486 74h1.027v36h-1.027z" fill="#83838a"></path><path d="M128 37v37l-64 37L0 74V37L64 0l64 37zM2.054 38.185v34.63L64 108.627l61.946-35.812v-34.63L64 2.373 2.054 38.185z" fill="#000000"></path></svg></g></g><g><g transform="translate(0 0)"><svg x="-425" y="558" height="93.28" width="81" viewBox="0 0 21.431124 24.680386"><path d="M.268 5.102l12.537 7.238 5.224-.603 3.134-9.048L16.984.276 1.313 2.086z" fill="#ececed" fill-rule="evenodd"></path><path d="M.268 5.102v12.064l12.537 7.238V12.34z" fill="#d2d2d4" fill-rule="evenodd"></path><path d="M12.805 12.34l5.224-.603v12.064l-5.224.603z" fill="#d2d2d4" fill-rule="evenodd"></path><path d="M18.029 11.737l3.134-9.048v12.064l-3.134 9.048z" fill="#b8b8bb" fill-rule="evenodd"></path><path d="M.268 5.102l12.537 7.238 5.224-.603 3.134-9.048M18.029 11.737v12.064M12.805 12.34v12.064" fill="none" stroke="#83838a" stroke-width=".265"></path><path d="M.268 17.166l12.537 7.238 5.224-.603 3.134-9.048V2.689L16.984.276 1.313 2.086.268 5.102z" fill="none" stroke="#000000" stroke-width=".529"></path><path d="M16.852 3.319c-.637-.01-1.269-.156-1.755-.437-.486-.28-.738-.645-.756-1.013l-3.498.035c.11.43-.121.884-.694 1.215-.364.21-.812.34-1.282.391-.625.068-1.225.242-1.709.521-1.273.735-1.277 1.926-.013 2.664.733.423 1.145.956 1.247 1.509.957.059 1.88.296 2.613.72 1.279.73 3.34.727 4.614-.008.483-.28.784-.626.902-.987.089-.271.315-.53.678-.74.573-.33 1.36-.464 2.104-.4l.061-2.02c-.637-.01-1.269-.156-1.755-.437-.486-.28-.739-.645-.757-1.013z" fill="none"></path><path d="M17.277 4.302c.467.27 1.056.427 1.664.471l-.05 1.693c-.73-.014-1.466.14-2.023.462-.404.234-.655.522-.754.824-.107.33-.381.647-.823.902-1.16.671-3.041.674-4.207.007-.722-.418-1.619-.665-2.555-.75-.144-.54-.573-1.06-1.296-1.477C6.081 5.759 6.086 4.672 7.247 4c.441-.256.989-.414 1.559-.476.522-.057 1.02-.203 1.424-.436.557-.322.823-.749.8-1.17l2.926-.03c.076.352.348.693.815.963.473.274 1.071.432 1.688.473.072.357.345.703.818.976z" fill="#4286c5" fill-rule="evenodd"></path><g style="line-height:0%;" fill="#fff" font-family="Interstate" font-size="5.176" stroke-width=".268"><path style="line-height:1.25;-inkscape-font-specification:Interstate;" d="M11.246 3.567l1.863 1.078-.399.231-1.429-.826-.86.497q.139.04.259.09.122.049.225.108.588.34.609.725.021.385-.529.703-.566.327-1.233.305-.665-.023-1.307-.394-.22-.127-.414-.282-.19-.154-.36-.339l.478-.276q.096.19.265.352.17.163.421.309.407.235.858.249.45.013.818-.199.366-.212.343-.473-.024-.26-.43-.496-.19-.11-.423-.196-.23-.084-.517-.147zM14.127 7.104q.268.239.228.482-.038.245-.376.44-.52.3-1.16.259-.642-.042-1.3-.423-.221-.128-.412-.29-.19-.158-.352-.353l.458-.265q.082.18.259.35.176.17.432.319.446.258.855.29.412.035.748-.16.31-.179.265-.406-.04-.227-.428-.451l-.408-.237.39-.225.427.247q.35.202.675.23.326.026.59-.127.27-.156.22-.35-.044-.195-.401-.401-.195-.113-.461-.218-.266-.104-.623-.208l.423-.244q.346.112.618.227.275.115.484.236.54.313.609.638.07.323-.348.565-.291.168-.66.189-.367.019-.752-.114z"></path></g></svg></g></g><g><g transform="translate(0 0)"><svg x="-224" y="666" height="94" width="97" fill-rule="evenodd"><path d="M0 18.6v18.6l32.333 18.6h32.334L97 37.2V18.6L64.667 0H32.333L0 18.6z" fill="#ececed"></path><path d="M64.667 55.8L97 37.2v37.2L64.667 93V55.8z" fill="#b8b8bb"></path><path d="M32.333 55.8h32.334V93H32.333V55.8zM0 37.2v37.2L32.333 93V55.8L0 37.2z" fill="#d2d2d4"></path><g fill="none" stroke="#83838a" stroke-width="1.04"><path d="M.955 37.877L32.333 55.8h32.334l31.378-17.923M32.333 55.8v36.211M64.667 55.8v36.574"></path></g><path d="M97 18.6v55.8L64.667 93H32.333L0 74.4V18.6L32.333 0h32.334L97 18.6zM32.865 1.989L1.989 19.751v53.498l30.876 17.762h31.27l30.876-17.762V19.751L64.135 1.989h-31.27z" fill="#000000"></path><path d="M69.912 15.583c11.818 6.798 11.818 17.836 0 24.635-11.817 6.798-31.007 6.798-42.824 0-11.818-6.799-11.818-17.837 0-24.635 11.817-6.799 31.007-6.799 42.824 0z" fill="#4286c5"></path><path d="M49.584 14.774c1.824 1.049 1.824 2.753 0 3.802-1.824 1.05-4.786 1.05-6.61 0-1.824-1.049-1.824-2.753 0-3.802 1.824-1.05 4.786-1.05 6.61 0zM60.451 21.025c1.825 1.049 1.825 2.753 0 3.803-1.824 1.049-4.786 1.049-6.61 0-1.824-1.05-1.824-2.754 0-3.803s4.786-1.049 6.61 0zM71.319 27.276c1.824 1.05 1.824 2.754 0 3.803-1.825 1.049-4.787 1.049-6.611 0-1.824-1.049-1.824-2.753 0-3.803 1.824-1.049 4.786-1.049 6.611 0zM38.497 33.654c1.824 1.05 1.824 2.754 0 3.803-1.825 1.05-4.787 1.05-6.611 0-1.824-1.049-1.824-2.753 0-3.803 1.824-1.049 4.786-1.049 6.611 0z" fill="#fff"></path><path d="M47.458 15.878c.453.26.393.717-.133 1.02-.526.303-1.32.337-1.773.076-.452-.26-.392-.717.133-1.019.526-.303 1.321-.337 1.773-.077z" fill="#fff"></path><path d="M48.111 15.621c1.012.582 1.012 1.526 0 2.108-1.011.582-2.653.582-3.664 0-1.012-.582-1.012-1.526 0-2.108 1.011-.582 2.653-.582 3.664 0zM58.978 21.872c1.012.582 1.012 1.527 0 2.108-1.011.582-2.653.582-3.664 0-1.012-.581-1.012-1.526 0-2.108 1.011-.581 2.653-.581 3.664 0zM69.846 28.124c1.011.581 1.011 1.526 0 2.108-1.012.582-2.654.582-3.665 0-1.011-.582-1.011-1.527 0-2.108 1.011-.582 2.653-.582 3.665 0z" fill="#4286c5"></path><path d="M37.024 34.502c1.011.582 1.011 1.526 0 2.108-1.012.582-2.654.582-3.665 0-1.011-.582-1.011-1.526 0-2.108 1.011-.582 2.653-.582 3.665 0z" fill="#fff"></path><g fill="#fff"><path d="M52.301 25.172L37.719 33.56l.482.834 14.584-8.388-.484-.834z"></path><path d="M46.993 26.089l6.654-1.146-4.324 5.168c.189-1.691-.757-3.313-2.33-4.022z" stroke="#fff" stroke-width=".36"></path></g><g fill="#fff"><path d="M43.488 19.937l-6.057 13.797.886.387 6.056-13.798-.885-.386z"></path><path d="M39.76 23.812l4.676-4.854-.405 6.716c-.855-1.474-2.582-2.221-4.271-1.862z" stroke="#fff" stroke-width=".36"></path></g><g fill="#fff"><path d="M61.953 30.061l-23.985 3.483.14.955 23.985-3.486-.14-.952z"></path><path d="M56.68 28.957l6.608 1.387-5.936 3.209c.804-1.503.526-3.358-.672-4.596z" stroke="#fff" stroke-width=".36"></path></g><path d="M37.96 33.977l13.12-7.547M37.873 33.927l5.792-13.134M38.037 34.022l22.478-3.281" fill="#fff" stroke="#fff" stroke-width="1.93"></path></svg></g></g><g><g transform="translate(0 0)"><svg x="-600" y="672" height="95.068" width="63" viewBox="0 0 16.668756 25.153389"><path d="M16.668 22.903q0 1.64-.864 2.091-.865.451-2.297-.376L3.161 18.645q-1.433-.827-2.297-2.276Q.001 14.921 0 13.28q0-.723.042-1.39.042-.666.166-1.394.124-.727.313-1.302.19-.575.51-1.039.319-.464.733-.683.414-.22 1.012-.147.598.073 1.32.49.107.06.497.58.391.52.882 1.165.491.646 1.279 1.394.788.75 1.58 1.207.793.458 1.58.618.788.161 1.28.083.49-.079.881-.147.39-.069.497-.007.722.416 1.32 1.035.598.619 1.013 1.315.414.697.734 1.531t.509 1.627q.19.793.313 1.664.124.872.166 1.586.042.713.042 1.438zM12.88 8.51q0 2.173-1.332 2.942-1.332.769-3.214-.318-1.882-1.086-3.214-3.393Q3.79 5.434 3.79 3.26q0-2.173 1.331-2.942 1.332-.77 3.214.317t3.214 3.394q1.332 2.306 1.332 4.48z" fill="#444"></path></svg></g></g></g><g></g><g></g><g><g><g transform="translate(0 0)"><svg x="-192" y="185" overflow="visible" style="user-select:none;"><text stroke="#ffffff" stroke-width="4" font-family="Open Sans" y="36.5" font-size="25pt" fill="#f5b720" font-weight="bold" transform="matrix(0.707 0.409 -0.707 0.409 0 0)"><tspan x="8" dy="0">Control Center</tspan></text><text font-family="Open Sans" y="36.5" font-size="25pt" fill="#f5b720" font-weight="bold" transform="matrix(0.707 0.409 -0.707 0.409 0 0)"><tspan x="8" dy="0">Control Center</tspan></text></svg></g></g><g><g transform="translate(0 0)"><svg x="-208" y="453" overflow="visible" style="user-select:none;"><text stroke="#ffffff" stroke-width="4" font-family="Open Sans" y="36.5" font-size="25pt" fill="#f5b720" font-weight="bold" transform="matrix(0.707 0.409 -0.707 0.409 0 0)"><tspan x="8" dy="0">Java PCs</tspan></text><text font-family="Open Sans" y="36.5" font-size="25pt" fill="#f5b720" font-weight="bold" transform="matrix(0.707 0.409 -0.707 0.409 0 0)"><tspan x="8" dy="0">Java PCs</tspan></text></svg></g></g><g><g transform="translate(0 0)"><svg x="128" y="111" overflow="visible" style="user-select:none;"><text stroke="#ffffff" stroke-width="4" font-family="Open Sans" y="36.5" font-size="25pt" fill="#f5b720" font-weight="bold" transform="matrix(0.707 0.409 -0.707 0.409 0 0)"><tspan x="8" dy="0">Database</tspan></text><text font-family="Open Sans" y="36.5" font-size="25pt" fill="#f5b720" font-weight="bold" transform="matrix(0.707 0.409 -0.707 0.409 0 0)"><tspan x="8" dy="0">Database</tspan></text></svg></g></g><g><g transform="translate(0 0)"><svg x="64" y="352" overflow="visible" style="user-select:none;"><text stroke="#ffffff" stroke-width="4" font-family="Open Sans" y="36.5" font-size="25pt" fill="#f5b720" font-weight="bold" transform="matrix(0.707 0.409 -0.707 0.409 0 0)"><tspan x="8" dy="0">ICENETs (optional)</tspan></text><text font-family="Open Sans" y="36.5" font-size="25pt" fill="#f5b720" font-weight="bold" transform="matrix(0.707 0.409 -0.707 0.409 0 0)"><tspan x="8" dy="0">ICENETs (optional)</tspan></text></svg></g></g><g><g transform="translate(0 0)"><svg x="288" y="204" overflow="visible" style="user-select:none;"><text stroke="#ffffff" stroke-width="4" font-family="Open Sans" y="36.5" font-size="25pt" fill="#f5b720" font-weight="bold" transform="matrix(0.707 0.409 -0.707 0.409 0 0)"><tspan x="8" dy="0">Shared Drive (config and Certs)</tspan></text><text font-family="Open Sans" y="36.5" font-size="25pt" fill="#f5b720" font-weight="bold" transform="matrix(0.707 0.409 -0.707 0.409 0 0)"><tspan x="8" dy="0">Shared Drive (config and Certs)</tspan></text></svg></g></g></g></g></g></svg>